<?xml version="1.0" encoding="utf-8"?>
<!DOCTYPE svg PUBLIC "-//W3C//DTD SVG 1.1//EN" "http://www.w3.org/Graphics/SVG/1.1/DTD/svg11.dtd">
<svg width="256" height="256" xmlns="http://www.w3.org/2000/svg">
 <g id="background">
  <rect fill="#52b8e0" id="canvas_background" height="256" width="256" y="0" x="0"/>
 </g>
 <g id="symbol">
  <path stroke="null" id="svg_2" d="m184.700279,137.777482l0,46.86078c0,1.691943 -0.618226,3.156571 -1.854679,4.393454c-1.237314,1.235592 -2.70065,1.854248 -4.393023,1.854248l-99.969262,0c-1.692373,0 -3.157001,-0.618657 -4.393023,-1.854248c-1.236883,-1.236883 -1.855109,-2.701511 -1.855109,-4.393454l0,-46.86078c0,-0.065439 0.01636,-0.162736 0.049079,-0.293184c0.032289,-0.130447 0.048649,-0.227314 0.048649,-0.292323l56.134605,-46.275273l56.135466,46.275273c0.065439,0.130017 0.097297,0.325473 0.097297,0.585507zm21.770521,-6.736342l-6.052677,7.224982c-0.521359,0.585076 -1.204594,0.942838 -2.050135,1.073716l-0.293184,0c-0.846402,0 -1.530498,-0.228175 -2.050135,-0.683665l-67.557155,-56.330061l-67.556724,56.330061c-0.780963,0.520929 -1.561926,0.747813 -2.342888,0.683665c-0.846402,-0.130878 -1.530067,-0.48864 -2.050565,-1.073716l-6.053107,-7.224982c-0.520068,-0.650515 -0.748243,-1.415118 -0.682804,-2.293809c0.064578,-0.878691 0.42277,-1.578285 1.073716,-2.098353l70.193227,-58.478355c2.082424,-1.692373 4.55576,-2.538344 7.419146,-2.538344c2.864248,0 5.337153,0.845971 7.420007,2.538344l70.193227,58.478355c0.650515,0.520068 1.008277,1.219662 1.073716,2.098353c0.065008,0.878691 -0.163167,1.643294 -0.683665,2.293809z" fill="#FFFFFF"/>
 </g>
</svg>